Coordinates
version=1
nRows=13
nColumns=36
inDegrees=yes

Units are S.I. units (second, meters, Newtons, ...)
If the header above contains a line with 'inDegrees', this indicates whether rotational values are in degrees (yes) or radians (no).

endheader
time	pelvis_tilt	pelvis_list	pelvis_rotation	pelvis_tx	pelvis_ty	pelvis_tz	hip_flexion_r	hip_adduction_r	hip_rotation_r	knee_angle_r	knee_angle_r_beta	ankle_angle_r	subtalar_angle_r	mtp_angle_r	hip_flexion_l	hip_adduction_l	hip_rotation_l	knee_angle_l	knee_angle_l_beta	ankle_angle_l	subtalar_angle_l	mtp_angle_l	lumbar_extension	lumbar_bending	lumbar_rotation	arm_flex_r	arm_add_r	arm_rot_r	elbow_flex_r	pro_sup_r	arm_flex_l	arm_add_l	arm_rot_l	elbow_flex_l	pro_sup_l
      2.30000000	    -18.05170489	     -1.93631064	     -9.86731762	      1.40306181	      0.93797923	     -0.00111154	     52.61456137	     -0.08209726	     -1.89845545	     41.84826835	      0.73039007	     10.99500068	      0.08808204	     -7.49999987	     55.67160703	    -11.58014436	      0.04754739	     43.47546257	      0.75878997	      1.67619726	     -6.16966326	     -7.49999987	    -19.68031372	     -1.73997628	      3.71206151	    -34.86803015	    -31.15929790	     -8.87862064	     13.43777255	     90.31633908	    -57.65762381	    -18.78271484	    -50.68102469	     65.41848081	    107.02704058
      2.31666670	    -19.52784984	     -1.59678099	     -9.68481642	      1.42174255	      0.90261024	     -0.00326444	     58.50546484	      0.29970769	     -0.00447143	     51.29160259	      0.89520734	     16.60536546	     -1.73132257	     -7.49999987	     61.31999301	    -11.69860121	      0.45380561	     51.99309827	      0.90745075	      9.43833114	     -3.25679650	     -7.49999987	    -17.98993524	     -1.61921264	      0.84291217	    -20.63983464	    -27.23770852	    -11.23024200	      7.02113962	     92.79467966	    -44.30595350	    -15.99425429	    -49.91632481	     57.41852781	    108.14495865
      2.33333330	    -19.90728876	     -1.56027229	     -9.29294908	      1.42566776	      0.88350562	      0.00232473	     63.14523531	      1.04079255	      1.80308968	     60.43973232	      1.05487233	     20.91366415	     -3.62449127	     -7.49999987	     65.98348486	    -11.70357489	      1.41180689	     60.38952248	      1.05399600	     15.52820445	     -1.34942355	     -7.49999987	    -18.19738652	     -0.94106360	      0.04890739	    -11.29788890	    -21.81347639	    -12.00740043	      8.67627855	     91.45104196	    -29.03222082	    -16.67045772	    -44.78964191	     45.87029773	    107.10479092
      2.35000000	    -18.46337245	     -1.95807407	     -9.27775118	      1.43599739	      0.87432473	      0.00811796	     64.45165861	      2.25456501	      3.03538489	     67.32344330	      1.17501575	     24.45658783	     -4.72241765	     -7.49999987	     67.72626477	    -11.98155771	      2.37644477	     67.34131561	      1.17532768	     20.15301949	      0.13924919	     -7.49999987	    -21.29936987	     -0.62850607	      2.48217136	     -5.19378045	    -15.32092919	    -16.22912490	     15.72821478	     85.35828739	    -12.85983482	    -18.66736235	    -31.11189164	     35.58422913	    105.87712972
      2.36666670	    -17.63177206	     -2.23756299	     -9.16346201	      1.44205621	      0.84094954	      0.01130770	     66.70259035	      3.47011340	      3.97954686	     74.45112133	      1.29941720	     27.89752883	     -5.75263340	     -7.49999987	     70.37230484	    -12.33725906	      3.42179942	     74.50228958	      1.30031025	     24.51915194	      1.40506158	     -7.49999987	    -24.46564126	     -0.91232605	      2.50425912	      0.89296319	    -10.94931363	    -12.63276040	     21.05937645	     71.17978216	     -3.04759096	    -17.64539859	    -23.51364213	     34.75047894	    100.43615207
      2.38333330	    -15.40138565	     -2.98447586	     -8.98945239	      1.47328359	      0.83752499	      0.00286162	     64.65016853	      4.33490971	      4.86247374	     78.69853605	      1.37354857	     31.04119141	     -6.79705655	     -7.49999987	     68.80367995	    -12.36866487	      4.23197317	     79.01757595	      1.37911687	     29.12408454	      3.32175088	     -7.49999987	    -28.43053052	     -0.56026750	      3.28869076	      8.49753715	     -9.69536511	     -6.68069934	     26.33856190	     61.11933715	      7.06426986	    -13.87870003	    -16.35666482	     34.49073658	     96.42985693
      2.40000000	    -15.35032452	     -3.06792105	     -8.62277953	      1.47237267	      0.82970131	      0.00366546	     64.32762122	      4.50448180	      5.47468954	     81.16353544	      1.41657093	     32.73318912	     -8.06952415	     -7.49999987	     68.81508857	    -11.98569421	      4.66859947	     81.54050673	      1.42315032	     31.96699471	      4.00881606	     -7.49999987	    -29.44639197	     -0.62959955	      4.33268414	     18.73937362	     -8.56090976	     -4.84008610	     30.85788436	     61.20455091	     17.24448636	    -11.75458507	    -13.95854496	     41.03461145	     96.48845668
      2.41666670	    -17.26216239	     -2.79269384	     -8.48514122	      1.47339093	      0.81975208	      0.00492408	     66.20457271	      4.52002067	      5.62950095	     82.60364846	      1.44170564	     33.79673827	     -8.87312614	     -7.49999987	     71.13319265	    -11.38154512	      5.24764355	     83.55161039	      1.45825070	     33.83650211	      3.78073232	     -7.49999987	    -26.95539321	     -0.52308321	      5.70576228	     29.02689711	     -7.09633308	     -2.29974734	     37.91987483	     61.50810970	     27.15916944	    -10.32847820	    -10.28514964	     52.66467652	     98.05857107
      2.43333330	    -18.06417707	     -2.88976680	     -8.21440963	      1.47917533	      0.82507678	      0.00776545	     65.88436458	      4.48912882	      5.44226507	     82.04921036	      1.43202887	     34.47374088	     -9.17753793	     -7.49999987	     71.30681369	    -10.76128623	      5.94200666	     83.63575151	      1.45971924	     34.58623504	      3.02575829	     -7.49999987	    -24.98293726	     -0.15821329	      6.51071170	     40.15774620	     -5.88530312	      0.72398803	     45.65979179	     62.83286943	     39.27290981	     -8.94385049	     -6.11331525	     60.57509419	     99.60364620
      2.45000000	    -19.78030767	     -2.73543946	     -8.23669240	      1.47002632	      0.80070411	      0.01231867	     68.57866575	      4.63626064	      4.92931387	     83.40013905	      1.45560702	     35.49969979	     -8.94335791	     -7.49999987	     74.32831142	    -10.52782947	      6.84719616	     85.50777808	      1.49239226	     34.78687877	      1.63729877	     -7.49999987	    -19.53006455	      0.18845153	      8.56509704	     54.57958237	     -5.22497723	      4.21357329	     49.73557517	     77.78071119	     55.65427756	     -8.01117727	      2.30364847	     62.38295790	    106.32951308
      2.46666670	    -19.63144982	     -2.79448872	     -8.28702867	      1.48061093	      0.81303991	      0.00686225	     67.77054555	      4.44699422	      4.67708752	     82.94123281	      1.44759760	     36.50311262	     -7.96252558	     -7.49999987	     73.65595922	    -10.07465880	      7.28959209	     85.44600059	      1.49131404	     35.06036093	      1.00591645	     -7.49999987	    -17.02874179	      0.97682245	     10.18251579	     69.84201826	     -4.27088588	     10.29300539	     49.16126871	     90.61873942	     68.58608555	     -7.10410249	     11.55623935	     65.18398655	    102.57395515
      2.48333330	    -19.10457391	     -3.05449737	     -8.17949360	      1.48223862	      0.82932141	      0.00668774	     65.56919649	      4.03860122	      4.18683384	     80.68416272	      1.40820429	     36.62926929	     -7.01471203	     -7.49999987	     71.63153131	     -9.73553801	      7.62299351	     83.67637088	      1.46042818	     34.03543324	      0.06189184	     -7.49999987	    -16.43695695	      1.42112468	     10.14033990	     80.16608165	     -5.16490629	     14.27314473	     53.66370145	     90.57919628	     81.08756863	     -6.91749087	     19.30173599	     70.24852456	    100.72244861
      2.50000000	    -18.66915401	     -3.09634414	     -8.29199481	      1.48381509	      0.84226834	      0.00619378	     63.34056824	      3.58867864	      3.96015514	     77.80050862	      1.35787504	     36.07977795	     -6.35501503	     -7.49999987	     69.29663461	     -9.66215786	      7.37598022	     81.00998425	      1.41389095	     32.61437142	     -0.58495741	     -7.49999987	    -14.93782517	      1.23814562	     10.03315216	     92.77144342	     -3.87860930	     17.80532154	     56.86997362	    102.24936431	     94.80627334	     -6.57480234	     24.91663361	     75.72176449	     95.79701062
